<?xml version="1.0" encoding="utf-8"?>
<!-- Generator: Adobe Illustrator 22.0.1, SVG Export Plug-In . SVG Version: 6.00 Build 0)  -->
<svg version="1.1" id="Layer_1" xmlns="http://www.w3.org/2000/svg" xmlns:xlink="http://www.w3.org/1999/xlink" x="0px" y="0px"
	 viewBox="0 0 375 83.5" style="enable-background:new 0 0 375 83.5;" xml:space="preserve">
<style type="text/css">
	.st0{fill:url(#SVGID_1_);}
	.st1{fill:#C9DB42;}
	.st2{fill:url(#SVGID_2_);}
	.st3{fill:url(#SVGID_3_);}
	.st4{fill:url(#SVGID_4_);}
	.st5{fill:url(#SVGID_5_);}
	.st6{fill:url(#SVGID_6_);}
	.st7{fill:url(#SVGID_7_);}
	.st8{fill:url(#SVGID_8_);}
	.st9{fill:url(#SVGID_9_);}
	.st10{fill:url(#SVGID_10_);}
	.st11{fill:url(#SVGID_11_);}
	.st12{fill:url(#SVGID_12_);}
	.st13{fill:url(#SVGID_13_);}
	.st14{fill:url(#SVGID_14_);}
	.st15{fill:url(#SVGID_15_);}
	.st16{fill:url(#SVGID_16_);}
	.st17{fill:url(#SVGID_17_);}
	.st18{fill:url(#SVGID_18_);}
	.st19{fill:url(#SVGID_19_);}
	.st20{fill:url(#SVGID_20_);}
	.st21{fill:url(#SVGID_21_);}
	.st22{fill:url(#SVGID_22_);}
	.st23{fill:url(#SVGID_23_);}
	.st24{fill:url(#SVGID_24_);}
	.st25{fill:url(#SVGID_25_);}
</style>
<linearGradient id="SVGID_1_" gradientUnits="userSpaceOnUse" x1="41.3" y1="14.8" x2="41.3" y2="82.6" gradientTransform="matrix(1 0 0 -1 0 86)">
	<stop  offset="0" style="stop-color:#283372"/>
	<stop  offset="1" style="stop-color:#335FAC"/>
</linearGradient>
<circle class="st0" cx="41.3" cy="37.3" r="33.9"/>
<path class="st1" d="M47.3,47.9c4.8,0,9.1-1.5,12.7-4.2c-3.3,2-6.8,2.9-10.7,2.9c-12.2,0-21.9-9.9-21.9-21.9c0-3.4,0.8-6.5,2.1-9.3
	c-2.1,3.3-3.4,7.2-3.4,11.4C26.1,38.5,35.6,47.9,47.3,47.9z"/>
<path class="st1" d="M21.3,29.1C21.3,42.3,32.5,53,46.1,53c5.5,0,10.6-1.7,14.9-4.7c-3.7,2-7.9,3.1-12.5,3.1
	c-14.2,0-25.7-11.1-25.7-24.7c0-3.8,0.9-7.3,2.4-10.5C22.7,19.8,21.3,24.3,21.3,29.1z"/>
<path class="st1" d="M48.9,42.4c4.1,0,7.8-1.3,10.8-3.4c-2.7,1.4-5.9,2.3-9.2,2.3c-10.3,0-18.8-8-18.8-17.8c0-2.7,0.7-5.2,1.7-7.5
	c-1.8,2.7-2.8,5.9-2.8,9.2C30.7,34.7,38.9,42.4,48.9,42.4z"/>
<path class="st1" d="M45.9,56c-14.6,0-26.5-11.8-26.5-26.5c0-5.9,2-11.3,5.1-15.6c-4.4,4.7-7.2,11-7.2,18
	c0,14.6,11.8,26.5,26.5,26.5c8.8,0,16.6-4.2,21.4-10.8C60.4,52.7,53.5,56,45.9,56z"/>
<path class="st1" d="M39.6,2.3C19,2.3,2.3,19,2.3,39.6S19,76.9,39.6,76.9s37.3-16.7,37.3-37.3S60.2,2.3,39.6,2.3z M43.7,60.2
	c-15.6,0-28.2-12.6-28.2-28.2S28.2,3.8,43.7,3.8S72,16.4,72,32S59.3,60.2,43.7,60.2z"/>
<g>
	
		<linearGradient id="SVGID_2_" gradientUnits="userSpaceOnUse" x1="91.1" y1="-9.599" x2="91.1" y2="74.244" gradientTransform="matrix(1 0 0 -1 0 86)">
		<stop  offset="0" style="stop-color:#283372"/>
		<stop  offset="1" style="stop-color:#335FAC"/>
	</linearGradient>
	<path class="st2" d="M75.1,44.4h1.8C78.2,50.3,82.7,56,89.1,56c6,0,10.7-4.2,10.7-10.4c0-14.5-23.1-10.2-23.1-28.6
		c0-10.2,7.2-15.4,16.7-15.4c3.3,0,6.4,0.7,9.5,1.2l1.3,10h-1.8c-0.9-5.4-4.4-8.7-10.1-8.7c-6,0-9.3,4.3-9.3,10
		c0,14.5,24.1,10.5,24.1,28.5c0,10.2-9.1,15.8-18.3,15.8c-4,0-8.2-1-11.9-2.6L75.1,44.4L75.1,44.4z"/>
	
		<linearGradient id="SVGID_3_" gradientUnits="userSpaceOnUse" x1="128.6" y1="-9.599" x2="128.6" y2="74.244" gradientTransform="matrix(1 0 0 -1 0 86)">
		<stop  offset="0" style="stop-color:#283372"/>
		<stop  offset="1" style="stop-color:#335FAC"/>
	</linearGradient>
	<path class="st3" d="M142.7,53c0,1.4,0.9,1.5,2.2,1.5c1,0,2.1-0.1,3.1-0.1V56c-3.4,0.3-9.8,2-11.3,2.4l-0.4-0.2v-6.3
		c-4.7,3.8-8.2,6.5-13.8,6.5c-4.2,0-8.6-2.7-8.6-9.3v-20c0-2.1-0.3-4-4.7-4.3v-1.5c2.8-0.1,9.1-0.5,10.1-0.5c0.9,0,0.9,0.5,0.9,2.3
		v20.2c0,2.4,0,9.1,6.8,9.1c2.6,0,6.2-2.1,9.4-4.8v-21c0-1.5-3.8-2.4-6.5-3.3v-1.4c7.1-0.4,11.4-1.1,12.2-1.1c0.7,0,0.7,0.5,0.7,1.4
		V53H142.7z"/>
	
		<linearGradient id="SVGID_4_" gradientUnits="userSpaceOnUse" x1="167" y1="-9.599" x2="167" y2="74.244" gradientTransform="matrix(1 0 0 -1 0 86)">
		<stop  offset="0" style="stop-color:#283372"/>
		<stop  offset="1" style="stop-color:#335FAC"/>
	</linearGradient>
	<path class="st4" d="M160.2,71.2c0,1.8,2,1.8,3.7,1.8h3.5v2.1c-3.4-0.1-6.6-0.1-10-0.1c-3.3,0-6.5,0.1-9.7,0.1V73h2.9
		c2.9,0,3.3-1.3,3.3-2.5v-37c0-6-2.4-5.6-4.6-6.7v-1.2c3-1.4,6.1-2.9,9.2-4.2c0.2-0.1,0.5-0.3,0.8-0.3s0.9,0,0.9,0.7v5.5
		c3-2.7,7.2-5.8,11.8-5.8c8.8,0,14.3,8.5,14.3,16.6c0,10.7-8.5,20.3-19.2,20.3c-2.1,0-5.1-0.7-6.9-1.5V71.2z M167.2,26.8
		c-2.6,0-5.4,1.5-6.9,2.6v21.3c1,1.8,3.5,5.4,8.4,5.4c7.6,0,11.6-7.8,11.6-14.5C180.1,33.9,175.6,26.8,167.2,26.8z"/>
	
		<linearGradient id="SVGID_5_" gradientUnits="userSpaceOnUse" x1="205" y1="-9.6" x2="205" y2="74.243" gradientTransform="matrix(1 0 0 -1 0 86)">
		<stop  offset="0" style="stop-color:#283372"/>
		<stop  offset="1" style="stop-color:#335FAC"/>
	</linearGradient>
	<path class="st5" d="M196.6,35.8c-0.1,0.7-0.1,1.8,0,4.6c0.4,7.4,5.2,13.6,11.5,13.6c4.3,0,7.7-2.4,10.5-5.2l1.1,1.1
		c-3.6,4.8-8,8.8-14.4,8.8c-12.4,0-15-12-15-17c0-15.3,10.3-19.9,15.7-19.9c6.3,0,13.1,4,13.2,12.3c0,0.4,0,1-0.1,1.4l-0.7,0.4
		h-21.8V35.8z M210.4,33.3c2,0,2.2-1,2.2-2c0-4-2.4-7.2-6.8-7.2c-4.8,0-8,3.5-9,9.1h13.6V33.3z"/>
	
		<linearGradient id="SVGID_6_" gradientUnits="userSpaceOnUse" x1="235.45" y1="-9.599" x2="235.45" y2="74.244" gradientTransform="matrix(1 0 0 -1 0 86)">
		<stop  offset="0" style="stop-color:#283372"/>
		<stop  offset="1" style="stop-color:#335FAC"/>
	</linearGradient>
	<path class="st6" d="M222.3,55.3h2.1c2.2,0,3.8,0,3.8-2.6V30.8c0-2.4-2.9-2.9-4-3.5v-1.2c5.8-2.4,8.8-4.4,9.5-4.4
		c0.4,0,0.7,0.2,0.7,1v7.1h0.1c2-3,5.2-8,10-8c2,0,4.4,1.3,4.4,4.1c0,2.1-1.5,4-3.7,4c-2.4,0-2.4-1.8-5.2-1.8
		c-1.3,0-5.8,1.8-5.8,6.5v18.3c0,2.6,1.5,2.6,3.8,2.6h4.3v2.1c-4.3-0.1-7.6-0.1-11-0.1c-3.3,0-6.5,0.1-9.3,0.1v-2.2L222.3,55.3
		L222.3,55.3z"/>
	
		<linearGradient id="SVGID_7_" gradientUnits="userSpaceOnUse" x1="270.5999" y1="-9.599" x2="270.5999" y2="74.244" gradientTransform="matrix(1 0 0 -1 0 86)">
		<stop  offset="0" style="stop-color:#283372"/>
		<stop  offset="1" style="stop-color:#335FAC"/>
	</linearGradient>
	<path class="st7" d="M256.2,32c0-2.9-0.9-3.7-4.6-5.2v-1.5c3.4-1.1,6.5-2.1,10.3-3.8c0.2,0,0.4,0.1,0.4,0.8v5.1
		c4.4-3.3,8.2-5.9,13.6-5.9c6.6,0,9,4.9,9,11v20.2c0,2.6,1.7,2.6,3.9,2.6h1.4v2.1c-2.7,0-5.4-0.1-8.2-0.1c-2.8,0-5.6,0.1-8.5,0.1
		v-2.1h1.4c2.2,0,3.8,0,3.8-2.6V32.4c0-4.4-2.7-6.6-7.2-6.6c-2.5,0-6.5,2.1-9.1,3.8v23.1c0,2.6,1.7,2.6,3.9,2.6h1.4v2.1
		c-2.7,0-5.4-0.1-8.2-0.1c-2.8,0-5.6,0.1-8.5,0.1v-2.1h1.4c2.2,0,3.8,0,3.8-2.6L256.2,32L256.2,32z"/>
	
		<linearGradient id="SVGID_8_" gradientUnits="userSpaceOnUse" x1="311.5" y1="-9.599" x2="311.5" y2="74.244" gradientTransform="matrix(1 0 0 -1 0 86)">
		<stop  offset="0" style="stop-color:#283372"/>
		<stop  offset="1" style="stop-color:#335FAC"/>
	</linearGradient>
	<path class="st8" d="M325.6,53c0,1.4,0.9,1.5,2.2,1.5c1,0,2.1-0.1,3.1-0.1V56c-3.4,0.3-9.8,2-11.3,2.4l-0.4-0.2v-6.3
		c-4.7,3.8-8.2,6.5-13.8,6.5c-4.2,0-8.6-2.7-8.6-9.3v-20c0-2.1-0.3-4-4.7-4.3v-1.5c2.8-0.1,9.1-0.5,10.1-0.5c0.9,0,0.9,0.5,0.9,2.3
		v20.2c0,2.4,0,9.1,6.8,9.1c2.6,0,6.2-2.1,9.4-4.8v-21c0-1.5-3.8-2.4-6.5-3.3v-1.4c7.1-0.4,11.4-1.1,12.2-1.1c0.7,0,0.7,0.5,0.7,1.4
		V53H325.6L325.6,53z"/>
	
		<linearGradient id="SVGID_9_" gradientUnits="userSpaceOnUse" x1="346.25" y1="-9.599" x2="346.25" y2="74.244" gradientTransform="matrix(1 0 0 -1 0 86)">
		<stop  offset="0" style="stop-color:#283372"/>
		<stop  offset="1" style="stop-color:#335FAC"/>
	</linearGradient>
	<path class="st9" d="M335.7,46.4c1,5.2,4.1,9.5,9.9,9.5c4.6,0,6.3-2.8,6.3-5.5c0-9.2-17-6.3-17-18.9c0-4.3,3.5-10,12.2-10
		c2.5,0,5.9,0.7,8.9,2.3l0.5,7.9h-1.8c-0.8-4.9-3.5-7.7-8.5-7.7c-3.1,0-6.1,1.8-6.1,5.2c0,9.1,18.1,6.3,18.1,18.6
		c0,5.2-4.1,10.6-13.5,10.6c-3.1,0-6.8-1.1-9.5-2.6l-0.9-9L335.7,46.4z"/>
	
		<linearGradient id="SVGID_10_" gradientUnits="userSpaceOnUse" x1="366.8" y1="-9.599" x2="366.8" y2="74.244" gradientTransform="matrix(1 0 0 -1 0 86)">
		<stop  offset="0" style="stop-color:#283372"/>
		<stop  offset="1" style="stop-color:#335FAC"/>
	</linearGradient>
	<path class="st10" d="M360.1,26.3c0-3.7,2.9-6.7,6.7-6.7c3.7,0,6.7,3,6.7,6.7c0,3.6-2.9,6.6-6.7,6.6S360.1,30,360.1,26.3z
		 M372.4,26.3c0-3.1-2.4-5.9-5.6-5.9c-3.1,0-5.6,2.7-5.6,5.9c0,3,2.5,5.8,5.6,5.8C370,32.1,372.4,29.4,372.4,26.3z M366.8,29.8h-3.1
		v-0.2c0.9-0.1,1-0.1,1-0.7v-5.1c0-0.9,0-0.9-1-1v-0.3h3.4c1.2,0,2.3,0.5,2.3,1.7c0,1-0.7,1.7-1.6,2.1l1.1,1.5
		c0.5,0.7,1.1,1.4,1.5,1.6v0.3h-1.2c-0.7,0-1.1-1.3-2.3-3.1h-1v2.3c0,0.5,0.1,0.5,1,0.7L366.8,29.8L366.8,29.8z M365.9,26.2h0.9
		c0.9,0,1.3-0.7,1.3-1.7s-0.7-1.5-1.3-1.5h-0.9V26.2z"/>
	<g>
		
			<linearGradient id="SVGID_11_" gradientUnits="userSpaceOnUse" x1="189.75" y1="-9.599" x2="189.75" y2="74.244" gradientTransform="matrix(1 0 0 -1 0 86)">
			<stop  offset="0" style="stop-color:#283372"/>
			<stop  offset="1" style="stop-color:#335FAC"/>
		</linearGradient>
		<path class="st11" d="M183.4,63.5h6.3c2.6,0,6.4,1.1,6.4,5.1c0,3-2.8,5.1-5.5,5.1h-1.3v-0.9h1c2.2,0,3.1-2.2,3.1-4
			c0-3.6-2.5-4.6-4.1-4.6c-0.4,0-0.9,0-1.1,0.1v14.4c0,1.7,1,1.8,2.4,1.8v0.7h-7.2v-0.7c1.3,0,2.3,0,2.3-1.8v-12
			c0-2-0.3-2.5-2.3-2.5L183.4,63.5L183.4,63.5z"/>
		
			<linearGradient id="SVGID_12_" gradientUnits="userSpaceOnUse" x1="203.15" y1="-9.599" x2="203.15" y2="74.244" gradientTransform="matrix(1 0 0 -1 0 86)">
			<stop  offset="0" style="stop-color:#283372"/>
			<stop  offset="1" style="stop-color:#335FAC"/>
		</linearGradient>
		<path class="st12" d="M198.5,65.6c0-1.6-0.4-1.7-1.3-2v-0.4c1-0.3,2.1-0.8,2.6-1.1c0.3-0.1,0.4-0.3,0.5-0.3s0.2,0.1,0.2,0.3v9.8
			c0.2-0.2,1.8-2.3,3.9-2.3c2.2,0,3.4,1.6,3.4,3.8v6.3c0,0.9,0.5,0.9,1.3,0.9h0.4v0.7h-5.4v-0.7h0.4c1.2,0,1.3-0.3,1.3-2.8v-2.9
			c0-1.8-0.2-3.8-2.5-3.8c-1.2,0-2.2,0.9-2.8,1.4v7.2c0,0.9,0.5,0.9,1.3,0.9h0.4v0.7h-5.4v-0.7h0.4c0.8,0,1.2,0,1.2-0.9L198.5,65.6
			L198.5,65.6z"/>
		
			<linearGradient id="SVGID_13_" gradientUnits="userSpaceOnUse" x1="216.25" y1="-9.599" x2="216.25" y2="74.244" gradientTransform="matrix(1 0 0 -1 0 86)">
			<stop  offset="0" style="stop-color:#283372"/>
			<stop  offset="1" style="stop-color:#335FAC"/>
		</linearGradient>
		<path class="st13" d="M221.6,80.4c-0.8,0.7-1.5,1.4-2.5,1.4c-1.1,0-1.5-1-1.6-1.8c-1.2,1.1-2.4,1.8-3.9,1.8
			c-1.6,0-2.7-1.1-2.7-2.5c0.1-2.1,1.2-2.4,6.6-4.3v-1.7c0-1.4-0.9-2.2-2.5-2.2c-1.1,0-1.8,0.7-2,1.7c0,0.8-0.9,1.1-1.4,1.1
			c-0.4,0-0.4-0.3-0.4-0.5c0-1.3,1.2-2,2.9-2.9c0.9-0.4,1.3-0.9,2.3-0.9c1.2,0,3.1,0.8,3.1,2.2v7.1c0,1.1,0.3,1.4,0.9,1.4
			c0.3,0,0.8-0.1,1-0.4L221.6,80.4L221.6,80.4z M217.3,75.7c-1.3,0.5-4.7,1.1-4.7,3c0,1,0.9,1.8,1.8,1.8c1.2,0,2-0.8,2.8-1.5
			L217.3,75.7L217.3,75.7z"/>
		
			<linearGradient id="SVGID_14_" gradientUnits="userSpaceOnUse" x1="226.65" y1="-9.599" x2="226.65" y2="74.244" gradientTransform="matrix(1 0 0 -1 0 86)">
			<stop  offset="0" style="stop-color:#283372"/>
			<stop  offset="1" style="stop-color:#335FAC"/>
		</linearGradient>
		<path class="st14" d="M222.4,80.7h0.7c0.8,0,1.2,0,1.2-0.9v-7.2c0-0.8-1-1-1.3-1.2V71c1.8-0.8,2.9-1.4,3.1-1.4
			c0.1,0,0.2,0.1,0.2,0.3v2.3c0.7-1,1.7-2.6,3.3-2.6c0.7,0,1.4,0.4,1.4,1.3c0,0.7-0.4,1.3-1.2,1.3s-0.8-0.7-1.7-0.7
			c-0.4,0-1.8,0.5-1.8,2.2v6c0,0.9,0.5,0.9,1.2,0.9h1.4v0.7h-6.6v-0.5h0.1L222.4,80.7z"/>
		
			<linearGradient id="SVGID_15_" gradientUnits="userSpaceOnUse" x1="241.5" y1="-9.599" x2="241.5" y2="74.244" gradientTransform="matrix(1 0 0 -1 0 86)">
			<stop  offset="0" style="stop-color:#283372"/>
			<stop  offset="1" style="stop-color:#335FAC"/>
		</linearGradient>
		<path class="st15" d="M233.4,72.9c0-1.1-0.4-1.3-1.3-1.7v-0.4c1.2-0.3,2.6-0.9,2.7-0.9c0.2-0.1,0.3-0.1,0.4-0.1
			c0.1,0,0.2,0.1,0.2,0.3v1.5c1.4-1,2.6-2,4.4-2c1.3,0,2.4,0.7,2.7,2c1.4-0.9,2.6-2,4.3-2c2.2,0,3,1.7,3,3.6v6.5
			c0,0.9,0.5,0.9,1.3,0.9h0.4v0.7h-5.3v-0.7h0.4c0.8,0,1.2,0,1.2-0.9v-5.6c0-1.6-0.3-3.1-2.2-3.1c-1,0-2.4,0.9-3,1.2v7.6
			c0,0.9,0.5,0.9,1.3,0.9h0.4v0.7h-5.4v-0.7h0.4c0.8,0,1.2,0,1.2-0.9v-5.6c0-1.6-0.3-3.1-2.2-3.1c-1,0-2.4,0.9-3,1.2v7.6
			c0,0.9,0.5,0.9,1.3,0.9h0.4v0.7h-5.5v-0.7h0.5c0.8,0,1.2,0,1.2-0.9v-6.8h0.2L233.4,72.9z"/>
		
			<linearGradient id="SVGID_16_" gradientUnits="userSpaceOnUse" x1="258.05" y1="-9.599" x2="258.05" y2="74.244" gradientTransform="matrix(1 0 0 -1 0 86)">
			<stop  offset="0" style="stop-color:#283372"/>
			<stop  offset="1" style="stop-color:#335FAC"/>
		</linearGradient>
		<path class="st16" d="M263.4,80.4c-0.8,0.7-1.5,1.4-2.5,1.4c-1.1,0-1.5-1-1.6-1.8c-1.2,1.1-2.4,1.8-3.9,1.8
			c-1.6,0-2.7-1.1-2.7-2.5c0.1-2.1,1.2-2.4,6.6-4.3v-1.7c0-1.4-0.9-2.2-2.5-2.2c-1.1,0-1.8,0.7-2,1.7c0,0.8-0.9,1.1-1.4,1.1
			c-0.4,0-0.4-0.3-0.4-0.5c0-1.3,1.2-2,2.9-2.9c0.9-0.4,1.3-0.9,2.3-0.9c1.2,0,3.1,0.8,3.1,2.2v7.1c0,1.1,0.3,1.4,0.9,1.4
			c0.3,0,0.8-0.1,1-0.4C263.2,79.9,263.4,80.4,263.4,80.4z M259.3,75.7c-1.3,0.5-4.7,1.1-4.7,3c0,1,0.9,1.8,1.8,1.8
			c1.2,0,2-0.8,2.8-1.5v-3.3H259.3z"/>
		
			<linearGradient id="SVGID_17_" gradientUnits="userSpaceOnUse" x1="269.35" y1="-9.599" x2="269.35" y2="74.244" gradientTransform="matrix(1 0 0 -1 0 86)">
			<stop  offset="0" style="stop-color:#283372"/>
			<stop  offset="1" style="stop-color:#335FAC"/>
		</linearGradient>
		<path class="st17" d="M274.4,79.1c-1.3,1.4-2.9,2.6-5,2.6c-2.6,0-5.1-2.6-5.1-5.3c0-3.7,2.6-6.7,6.3-6.7c1.3,0,3.5,0.4,3.5,1.7
			c0,0.5-0.3,1.1-1,1.1c-1.1,0-1-2.1-3.5-2.1c-2.2,0-3.4,2.5-3.4,4.3c0,2.6,1.7,5,4.4,5c1.3,0,2.2-0.4,3.1-1.2L274.4,79.1z"/>
		
			<linearGradient id="SVGID_18_" gradientUnits="userSpaceOnUse" x1="280.0999" y1="-9.599" x2="280.0999" y2="74.244" gradientTransform="matrix(1 0 0 -1 0 86)">
			<stop  offset="0" style="stop-color:#283372"/>
			<stop  offset="1" style="stop-color:#335FAC"/>
		</linearGradient>
		<path class="st18" d="M277.3,74.3v1.5c0.1,2.4,1.7,4.4,3.8,4.4c1.4,0,2.5-0.8,3.5-1.7l0.3,0.3c-1.2,1.5-2.6,2.9-4.7,2.9
			c-4,0-4.9-3.9-4.9-5.5c0-5,3.4-6.5,5.1-6.5c2.1,0,4.2,1.3,4.3,4v0.4l-0.2,0.1L277.3,74.3L277.3,74.3z M281.9,73.4
			c0.7,0,0.8-0.3,0.8-0.7c0-1.3-0.8-2.4-2.2-2.4c-1.5,0-2.6,1.2-2.9,3L281.9,73.4L281.9,73.4z"/>
		
			<linearGradient id="SVGID_19_" gradientUnits="userSpaceOnUse" x1="292.35" y1="-9.599" x2="292.35" y2="74.244" gradientTransform="matrix(1 0 0 -1 0 86)">
			<stop  offset="0" style="stop-color:#283372"/>
			<stop  offset="1" style="stop-color:#335FAC"/>
		</linearGradient>
		<path class="st19" d="M296.9,79.9c0,0.4,0.3,0.4,0.8,0.4h1v0.5c-1.1,0.1-3.1,0.7-3.7,0.8l-0.1-0.1v-2.1c-1.5,1.3-2.7,2.2-4.6,2.2
			c-1.4,0-2.8-0.9-2.8-3v-6.5c0-0.7-0.1-1.3-1.5-1.4v-0.4c0.9,0,2.9-0.2,3.3-0.2s0.3,0.2,0.3,0.8v6.6c0,0.8,0,2.9,2.2,2.9
			c0.9,0,2.1-0.7,3-1.5V72c0-0.5-1.2-0.8-2.2-1.1v-0.4c2.3-0.1,3.7-0.3,4-0.3c0.2,0,0.2,0.2,0.2,0.4v9.3H296.9L296.9,79.9z"/>
		
			<linearGradient id="SVGID_20_" gradientUnits="userSpaceOnUse" x1="302.75" y1="-9.599" x2="302.75" y2="74.244" gradientTransform="matrix(1 0 0 -1 0 86)">
			<stop  offset="0" style="stop-color:#283372"/>
			<stop  offset="1" style="stop-color:#335FAC"/>
		</linearGradient>
		<path class="st20" d="M302.8,78.2c0,1.7,0.9,2.2,1.6,2.2s1.2-0.2,1.7-0.8l0.4,0.4c-0.9,0.9-2.1,1.7-3.4,1.7
			c-1.6,0-2.4-0.9-2.4-2.4v-7.9H299V71c1.3-1,2.2-1.5,3.4-3.6h0.3V70h3.8v1.4h-3.8C302.7,71.4,302.8,78.2,302.8,78.2z"/>
		
			<linearGradient id="SVGID_21_" gradientUnits="userSpaceOnUse" x1="309.85" y1="-9.599" x2="309.85" y2="74.244" gradientTransform="matrix(1 0 0 -1 0 86)">
			<stop  offset="0" style="stop-color:#283372"/>
			<stop  offset="1" style="stop-color:#335FAC"/>
		</linearGradient>
		<path class="st21" d="M307.3,80.7h0.4c0.8,0,1.2,0,1.2-0.9v-6.9c0-1.1-0.4-1.3-1.3-1.7v-0.4c1.2-0.3,2.6-0.9,2.7-0.9
			c0.2-0.1,0.3-0.1,0.4-0.1s0.2,0.1,0.2,0.3v9.8c0,0.9,0.5,0.9,1.3,0.9h0.4v0.7h-5.5v-0.7h0.2L307.3,80.7z M310,65.7
			c-0.7,0-1.3-0.7-1.3-1.3c0-0.7,0.7-1.2,1.3-1.2s1.3,0.5,1.3,1.2C311.3,65.2,310.8,65.7,310,65.7z"/>
		
			<linearGradient id="SVGID_22_" gradientUnits="userSpaceOnUse" x1="318.65" y1="-9.599" x2="318.65" y2="74.244" gradientTransform="matrix(1 0 0 -1 0 86)">
			<stop  offset="0" style="stop-color:#283372"/>
			<stop  offset="1" style="stop-color:#335FAC"/>
		</linearGradient>
		<path class="st22" d="M323.7,79.1c-1.3,1.4-2.9,2.6-5,2.6c-2.6,0-5.1-2.6-5.1-5.3c0-3.7,2.6-6.7,6.3-6.7c1.3,0,3.5,0.4,3.5,1.7
			c0,0.5-0.3,1.1-1,1.1c-1.1,0-1-2.1-3.4-2.1c-2.2,0-3.4,2.5-3.4,4.3c0,2.6,1.7,5,4.4,5c1.3,0,2.2-0.4,3.1-1.2L323.7,79.1z"/>
		
			<linearGradient id="SVGID_23_" gradientUnits="userSpaceOnUse" x1="330.15" y1="-9.599" x2="330.15" y2="74.244" gradientTransform="matrix(1 0 0 -1 0 86)">
			<stop  offset="0" style="stop-color:#283372"/>
			<stop  offset="1" style="stop-color:#335FAC"/>
		</linearGradient>
		<path class="st23" d="M335.5,80.4c-0.8,0.7-1.5,1.4-2.5,1.4c-1.1,0-1.5-1-1.6-1.8c-1.2,1.1-2.4,1.8-3.9,1.8
			c-1.6,0-2.7-1.1-2.7-2.5c0.1-2.1,1.2-2.4,6.6-4.3v-1.7c0-1.4-0.9-2.2-2.5-2.2c-1.1,0-1.8,0.7-2,1.7c0,0.8-0.9,1.1-1.4,1.1
			c-0.4,0-0.4-0.3-0.4-0.5c0-1.3,1.2-2,2.9-2.9c0.9-0.4,1.3-0.9,2.3-0.9c1.2,0,3.1,0.8,3.1,2.2v7.1c0,1.1,0.3,1.4,0.9,1.4
			c0.3,0,0.8-0.1,1-0.4C335.3,79.9,335.5,80.4,335.5,80.4z M331.4,75.7c-1.3,0.5-4.7,1.1-4.7,3c0,1,0.9,1.8,1.8,1.8
			c1.2,0,2-0.8,2.8-1.5L331.4,75.7L331.4,75.7z"/>
		
			<linearGradient id="SVGID_24_" gradientUnits="userSpaceOnUse" x1="339.15" y1="-9.599" x2="339.15" y2="74.244" gradientTransform="matrix(1 0 0 -1 0 86)">
			<stop  offset="0" style="stop-color:#283372"/>
			<stop  offset="1" style="stop-color:#335FAC"/>
		</linearGradient>
		<path class="st24" d="M336.6,80.7h0.4c0.8,0,1.2,0,1.2-0.9V65.6c0-1.6-0.4-1.7-1.3-2v-0.4c1-0.3,2.1-0.8,2.6-1.1
			c0.3-0.1,0.4-0.3,0.5-0.3s0.2,0.1,0.2,0.3v17.6c0,0.9,0.5,0.9,1.3,0.9h0.4v0.7h-5.5v-0.5L336.6,80.7L336.6,80.7z"/>
		
			<linearGradient id="SVGID_25_" gradientUnits="userSpaceOnUse" x1="347.35" y1="-9.599" x2="347.35" y2="74.244" gradientTransform="matrix(1 0 0 -1 0 86)">
			<stop  offset="0" style="stop-color:#283372"/>
			<stop  offset="1" style="stop-color:#335FAC"/>
		</linearGradient>
		<path class="st25" d="M343.7,77.8c0.3,1.7,1.3,3.1,3.3,3.1c1.5,0,2.1-0.9,2.1-1.8c0-3-5.5-2.1-5.5-6.2c0-1.4,1.2-3.3,3.9-3.3
			c0.9,0,2,0.2,2.9,0.8l0.2,2.6H350c-0.2-1.6-1.2-2.5-2.8-2.5c-1,0-2,0.5-2,1.7c0,3,6,2.1,6,6.1c0,1.7-1.3,3.5-4.3,3.5
			c-1,0-2.2-0.3-3.1-0.9l-0.3-2.9L343.7,77.8L343.7,77.8z"/>
	</g>
</g>
<circle class="st1" cx="89.3" cy="45.7" r="10.7"/>
</svg>
